# xmcd
#
# Track frame offsets:
#	150
#	16980
#	38688
#	54893
#	57725
#	80382
#	82757
#	108627
#	134522
#	159081
#	180172
#	209413
#	230524
#	254668
#
# Disc length: 3718 seconds
#
# Revision: 1
# Processed by: cddbd v1.5.1PL0 Copyright (c) Steve Scherf et al.
# Submitted via: CDex 1.50Beta5
#
DISCID=ae0e840e
DTITLE=槇原敬之 - NORIYUKI MAKIHARA SINGLE COLLECTION〜Such a Lovely
DYEAR=2000
DGENRE=
TTITLE0=素直
TTITLE1=情熱
TTITLE2=モンタージュ
TTITLE3=僕のものになればいいのに
TTITLE4=足音
TTITLE5=HAPPY DANCE
TTITLE6=BLIND
TTITLE7=STRIPE!
TTITLE8=Merry-go-round
TTITLE9=Hungry Spider
TTITLE10=この傘をたためば
TTITLE11=秋の気配
TTITLE12=ミス・ブランニュー・デイ(MISS BRAND-NEW DAY)
TTITLE13=空と君のあいだに
EXTD=
EXTT0=
EXTT1=
EXTT2=
EXTT3=
EXTT4=
EXTT5=
EXTT6=
EXTT7=
EXTT8=
EXTT9=
EXTT10=
EXTT11=
EXTT12=
EXTT13=
PLAYORDER=
